<?xml version="1.0" encoding="UTF-8" standalone="no"?>
<!DOCTYPE svg PUBLIC "-//W3C//DTD SVG 1.0//EN" "http://www.w3.org/TR/2001/REC-SVG-20010904/DTD/svg10.dtd">
<!-- Created with Inkscape (http://www.inkscape.org/) -->
<svg
   xmlns:svg="http://www.w3.org/2000/svg"
   xmlns="http://www.w3.org/2000/svg"
   version="1.0"
   width="800"
   height="350"
   id="svg2">
  <defs
     id="defs4" />
  <g
     id="layer1">
    <path
       d="M 31.959037,78.944808 C 26.123748,99.031561 21.298464,117.7436 17.48313,135.08101 C 17.20257,136.37149 17.006187,137.21312 16.893979,137.60586 C 16.501211,139.1769 16.024295,140.271 15.463229,140.88818 C 14.902136,141.50539 14.116628,141.81399 13.106676,141.81399 C 10.974567,141.81399 9.5298009,141.60359 8.7723245,141.18276 C 8.0148748,140.76196 7.63615,140.01853 7.63615,138.95246 C 7.63615,138.61581 7.8325337,137.77421 8.2252745,136.42761 C 8.3935996,135.86652 8.5338661,135.36154 8.6461007,134.91268 L 46.098267,13.803227 C 55.019418,27.044875 63.575913,39.416704 71.767754,50.918769 C 79.959487,62.421021 87.870714,73.193775 95.501515,83.237085 C 103.35654,72.127734 111.25376,60.793887 119.19318,49.235545 C 127.13235,37.677362 135.11374,25.866599 143.13734,13.803227 C 149.70183,35.517194 156.08414,56.922436 162.28422,78.019006 C 168.48403,99.11571 174.5016,119.98794 180.33703,140.63571 L 125.54743,140.63571 C 122.96633,130.7607 119.06682,116.06038 113.84887,96.534716 C 111.38001,87.333032 109.52843,80.431729 108.29417,75.830806 C 102.06606,84.583712 95.795984,93.57505 89.483912,102.80479 C 83.171653,112.03462 76.845485,121.5309 70.505328,131.29371 L 31.959037,78.944808 z M 231.38554,140.55156 C 231.44164,136.90452 231.51177,132.87876 231.59594,128.47428 C 231.68009,124.06979 231.72217,121.58702 231.72219,121.0259 L 231.72219,38.631089 C 231.72217,38.014013 231.68009,35.53121 231.59594,31.182736 C 231.51177,26.834475 231.44164,22.780656 231.38554,19.021306 L 286.00683,19.021306 C 285.95066,23.173424 285.85247,27.409584 285.71228,31.729786 C 285.57193,36.050228 285.5018,38.350663 285.50185,38.631089 L 285.50185,121.0259 C 285.5018,121.25037 285.57193,123.53676 285.71228,127.88513 C 285.85247,132.23352 285.95066,136.45567 286.00683,140.55156 L 231.38554,140.55156 z M 402.52809,118.08022 C 397.87105,109.21519 393.29824,100.79896 388.80966,92.831563 C 384.32095,84.864272 379.86037,77.289669 375.42786,70.107752 L 346.98102,118.08022 L 402.52809,118.08022 z M 414.5633,140.63571 L 405.81042,124.05575 L 343.53037,124.05575 C 342.07156,126.46842 340.30416,129.61048 338.22817,133.48193 C 335.25443,138.9244 333.01011,141.64566 331.49519,141.64566 C 330.59744,141.64566 329.79792,141.29497 329.09656,140.59363 C 328.3952,139.89228 328.04454,139.09272 328.04454,138.19501 C 328.04454,137.4095 331.34088,131.77062 337.93359,121.2784 C 344.5263,110.78621 350.54388,100.85508 355.9864,91.484962 L 403.20139,10.520901 L 477.68495,140.63571 L 414.5633,140.63571 z M 540.70312,78.944808 C 534.86785,99.031561 530.04254,117.7436 526.22721,135.08101 C 525.94665,136.37149 525.75029,137.21312 525.63808,137.60586 C 525.24532,139.1769 524.7684,140.271 524.20731,140.88818 C 523.64621,141.50539 522.86071,141.81399 521.85078,141.81399 C 519.71867,141.81399 518.27388,141.60359 517.51643,141.18276 C 516.75895,140.76196 516.38023,140.01853 516.38023,138.95246 C 516.38023,138.61581 516.57661,137.77421 516.96935,136.42761 C 517.13768,135.86652 517.27795,135.36154 517.39018,134.91268 L 554.84237,13.803227 C 563.76352,27.044875 572.31999,39.416704 580.51183,50.918769 C 588.70357,62.421021 596.61479,73.193775 604.24559,83.237085 C 612.10062,72.127734 619.99786,60.793887 627.93725,49.235545 C 635.87643,37.677362 643.85782,25.866599 651.88141,13.803227 C 658.44593,35.517194 664.82822,56.922436 671.02832,78.019006 C 677.22811,99.11571 683.24571,119.98794 689.08111,140.63571 L 634.29151,140.63571 C 631.71041,130.7607 627.8109,116.06038 622.59295,96.534716 C 620.12408,87.333032 618.27254,80.431729 617.03825,75.830806 C 610.81014,84.583712 604.54006,93.57505 598.22799,102.80479 C 591.91576,112.03462 585.58956,121.5309 579.24941,131.29371 L 540.70312,78.944808 z M 737.76539,140.55156 C 737.82149,136.90452 737.89162,132.87876 737.97579,128.47428 C 738.05994,124.06979 738.10205,121.58702 738.10205,121.0259 L 738.10205,38.631089 C 738.10205,38.014013 738.05994,35.53121 737.97579,31.182736 C 737.89162,26.834475 737.82149,22.780656 737.76539,19.021306 L 792.3867,19.021306 C 792.3305,23.173424 792.23233,27.409584 792.09212,31.729786 C 791.95177,36.050228 791.88164,38.350663 791.88172,38.631089 L 791.88172,121.0259 C 791.88164,121.25037 791.95177,123.53676 792.09212,127.88513 C 792.23233,132.23352 792.3305,136.45567 792.3867,140.55156 L 737.76539,140.55156 z"
       id="text2413"
       style="font-size:64.44006348px;font-style:normal;font-variant:normal;font-weight:normal;font-stretch:normal;text-align:start;line-height:100%;writing-mode:lr-tb;text-anchor:start;fill:#0bd2d3;fill-opacity:1;stroke:none;stroke-width:1px;stroke-linecap:butt;stroke-linejoin:miter;stroke-opacity:1;font-family:Broadway BT;-inkscape-font-specification:Broadway BT" />
    <text
       x="175"
       y="479.14789"
       id="text2417"
       xml:space="preserve"
       style="font-size:14.78126335px;font-style:normal;font-variant:normal;font-weight:normal;font-stretch:normal;text-align:start;line-height:100%;writing-mode:lr-tb;text-anchor:start;fill:#000000;fill-opacity:1;stroke:none;stroke-width:1px;stroke-linecap:butt;stroke-linejoin:miter;stroke-opacity:1;font-family:Broadway BT;-inkscape-font-specification:Broadway BT"><tspan
         x="175"
         y="479.14789"
         id="tspan2419" /></text>
    <text
       x="223.92857"
       y="500.93362"
       id="text2437"
       xml:space="preserve"
       style="font-size:14.78126335px;font-style:normal;font-variant:normal;font-weight:normal;font-stretch:normal;text-align:start;line-height:100%;writing-mode:lr-tb;text-anchor:start;fill:#000000;fill-opacity:1;stroke:none;stroke-width:1px;stroke-linecap:butt;stroke-linejoin:miter;stroke-opacity:1;font-family:Broadway BT;-inkscape-font-specification:Broadway BT"><tspan
         x="223.92857"
         y="500.93362"
         id="tspan2439"></tspan></text>
    <rect
       width="784.85394"
       height="151.77098"
       x="7.5567999"
       y="165.42577"
       id="rect3287"
       style="opacity:1;fill:#0bd2d3;fill-opacity:1;fill-rule:nonzero;stroke:none;stroke-width:2;stroke-linecap:square;stroke-linejoin:round;stroke-miterlimit:4;stroke-dasharray:none;stroke-opacity:1" />
    <path
       d="M 510.65525,212.53926 C 509.9578,212.53926 509.25395,212.6049 508.56556,212.62285 L 508.56556,218.13962 C 509.16964,218.13922 509.78872,218.13968 510.3209,218.13962 C 518.34428,218.13973 525.95831,219.54116 533.14028,222.40258 C 540.32201,225.26422 547.16674,229.55214 553.61921,235.27506 C 554.85347,236.39732 556.2824,237.9923 557.96576,239.95596 C 560.04162,242.42479 561.74651,243.63391 562.98101,243.6338 C 563.71029,243.63391 564.28682,243.35854 564.81993,242.88152 C 565.35284,242.40471 565.6557,241.88315 565.65581,241.20977 C 565.65568,239.91939 564.77575,238.18759 563.0646,236.02734 C 561.35318,233.86728 558.96188,231.53095 555.87607,229.006 C 549.0869,223.39531 542.02297,219.21674 534.64486,216.55146 C 527.26656,213.88643 519.23967,212.53937 510.65525,212.53926 z M 503.21596,212.9572 C 496.71438,213.5942 490.60865,215.01631 484.91031,217.30375 C 477.0832,220.44592 470.07421,225.11855 463.84626,231.34644 C 457.61823,237.51844 452.77957,244.52737 449.46922,252.41049 C 446.15883,260.29376 444.5375,268.5954 444.53755,277.23597 C 444.53753,285.93278 446.15942,294.17889 449.38563,301.97786 C 452.61181,309.77693 457.33997,316.70282 463.51191,322.87473 C 469.79601,329.15885 476.88735,333.91448 484.82672,337.0846 C 490.58216,339.38271 496.69421,340.79631 503.21596,341.43115 L 503.21596,212.9572 z M 251.61765,214.62895 C 250.53248,214.62908 249.68933,214.81554 249.02643,215.29765 C 248.36322,215.78 247.68328,216.79992 247.02033,218.3068 C 242.80062,227.40914 238.78808,235.78795 234.90015,243.38304 C 231.01198,250.97837 228.05226,256.27405 226.12347,259.34825 L 212.33153,284.67525 C 213.67206,286.8979 214.75848,288.73461 216.09297,290.94431 C 220.5043,282.91671 224.97689,274.84831 229.55055,266.70395 C 246.73015,236.11216 255.37891,219.94816 255.37909,218.13962 C 255.37893,217.11499 254.98552,216.29519 254.29245,215.632 C 253.59908,214.96905 252.70252,214.62908 251.61765,214.62895 z M 97.7331,216.38429 C 110.51238,237.0603 123.77701,258.95037 137.52074,281.91687 C 148.10481,299.60339 159.21558,318.3398 170.87214,338.17124 L 190.76596,338.17124 C 197.97305,324.38976 205.45593,310.39893 213.16741,296.29391 C 211.85119,294.11566 210.73168,292.30531 209.40597,290.10844 L 209.40597,290.02485 C 207.4554,286.79249 205.83907,284.15126 203.8892,280.91382 C 184.1407,248.12452 170.58005,225.40636 165.18819,216.38429 L 97.7331,216.38429 z M 697.13891,216.38429 L 643.1414,216.46787 C 643.19749,220.11502 643.22445,224.10012 643.30858,228.50447 C 643.39273,232.90906 643.47575,235.41029 643.47575,236.02734 L 643.47575,318.44459 C 643.47575,319.00569 643.39275,321.47937 643.30858,325.88388 C 643.22443,330.28836 643.19747,334.35703 643.1414,338.00406 L 697.13891,338.08765 L 697.13891,216.38429 z M 702.48851,216.38429 L 702.48851,221.90106 L 703.2408,221.90106 C 714.74289,221.90117 726.42505,222.12101 738.26395,222.56976 C 740.67651,222.6821 742.21653,222.73704 742.77767,222.73693 C 744.68526,222.73707 745.92121,222.54529 746.6227,222.06823 C 747.32392,221.59145 747.7092,220.71152 747.70934,219.47702 C 747.70923,218.29888 747.40698,217.50198 746.78987,217.05299 C 746.17256,216.60426 744.85361,216.38439 742.77767,216.38429 L 702.48851,216.38429 z M 308.54073,216.46787 C 308.59682,220.22722 308.70734,224.2398 308.79149,228.58806 C 308.87564,232.93656 308.87505,235.41029 308.87508,236.02734 L 308.87508,318.44459 C 308.87508,319.00569 308.87567,321.47937 308.79149,325.88388 C 308.70732,330.28836 308.59679,334.35703 308.54073,338.00406 L 363.20694,338.00406 C 363.15077,333.90817 363.01278,329.64719 362.87259,325.29877 C 362.73227,320.95043 362.70536,318.66901 362.70541,318.44459 L 362.70541,236.02734 C 362.70536,235.74692 362.73224,233.49359 362.87259,229.17317 C 363.0128,224.85297 363.1508,220.61996 363.20694,216.46787 L 308.54073,216.46787 z M 746.12117,249.23417 C 745.67218,249.23425 744.32571,249.28921 742.02539,249.40134 C 729.68151,249.73807 717.33983,249.90294 704.99613,249.90286 L 702.48851,249.90286 L 702.48851,255.50322 C 716.227,255.53104 729.85262,255.67256 743.2792,255.92116 C 746.0845,255.97736 747.70578,256.00483 748.21086,256.00475 C 749.61344,256.00483 750.60267,255.72948 751.22001,255.25246 C 751.83706,254.77562 752.13934,254.03422 752.13947,252.91201 C 752.13934,251.5094 751.81015,250.49153 751.05283,249.98645 C 750.29528,249.48158 748.64592,249.23422 746.12117,249.23417 z M 568.07985,300.55687 C 566.73314,300.5569 565.1943,302.1782 563.39895,305.48853 C 561.60336,308.79895 559.84352,311.46559 558.21652,313.42935 C 552.10062,320.94786 544.95428,326.5823 536.73454,330.3976 C 528.51459,334.21296 519.36113,336.08155 509.31785,336.08155 C 508.99241,336.08155 508.86174,336.07997 508.56556,336.08155 L 508.56556,341.7655 C 509.31304,341.7861 510.06473,341.84909 510.82242,341.84909 C 520.36073,341.84909 529.34937,340.03485 537.73759,336.4159 C 546.12566,332.79692 553.62922,327.46426 560.30621,320.45069 C 563.39205,317.14033 565.9487,313.84164 567.91267,310.58737 C 569.87632,307.33313 570.8381,304.96992 570.83823,303.39885 C 570.8381,302.50116 570.64632,301.81419 570.16953,301.30916 C 569.69248,300.80424 568.97743,300.55687 568.07985,300.55687 z M 752.47382,331.81859 C 752.24927,331.81859 751.58977,331.87356 750.46772,331.98577 C 744.1835,332.49074 737.83459,332.73803 731.32619,332.73805 C 730.76502,332.73805 729.14254,332.71061 726.5617,332.65446 C 718.09069,332.5624 710.23363,332.50355 702.48851,332.48729 L 702.48851,338.08765 L 750.80207,338.08765 C 752.93407,338.08765 754.3086,337.83978 754.89786,337.41895 C 755.48688,336.99813 755.81716,336.14575 755.81732,334.91133 C 755.81719,333.95749 755.48688,333.21558 754.89786,332.65446 C 754.3086,332.0934 753.48367,331.81859 752.47382,331.81859 z"
       id="path3272"
       style="font-size:69.23097992px;font-style:normal;font-variant:normal;font-weight:normal;font-stretch:normal;text-align:start;line-height:100%;writing-mode:lr-tb;text-anchor:start;fill:#000000;fill-opacity:1;stroke:none;stroke-width:1px;stroke-linecap:butt;stroke-linejoin:miter;stroke-opacity:1;font-family:Broadway BT;-inkscape-font-specification:Broadway BT" />
    <path
       d="M 487.93735,191.90953 C 487.2399,191.90953 486.53605,191.97516 485.84766,191.99311 L 485.84766,197.50989 C 486.45174,197.50949 487.07082,197.50994 487.603,197.50989 C 495.62638,197.50999 503.24041,198.91143 510.42238,201.77285 C 517.60411,204.63448 524.44884,208.9224 530.90131,214.64532 C 532.13557,215.76758 533.5645,217.36257 535.24786,219.32622 C 537.32372,221.79506 539.02861,223.00417 540.26311,223.00407 C 540.99239,223.00417 541.56892,222.7288 542.10204,222.25178 C 542.63494,221.77497 542.9378,221.25341 542.93791,220.58003 C 542.93778,219.28965 542.05785,217.55785 540.3467,215.39761 C 538.63528,213.23755 536.24398,210.90122 533.15818,208.37626 C 526.369,202.76557 519.30507,198.587 511.92696,195.92172 C 504.54866,193.25669 496.52177,191.90963 487.93735,191.90953 z M 480.49806,192.32746 C 473.99648,192.96447 467.89075,194.38658 462.19241,196.67401 C 454.3653,199.81618 447.35631,204.48881 441.12836,210.71671 C 434.90033,216.8887 430.06167,223.89764 426.75132,231.78075 C 423.44093,239.66403 421.8196,247.96567 421.81966,256.60623 C 421.81963,265.30305 423.44152,273.54916 426.66773,281.34812 C 429.89391,289.1472 434.62207,296.07308 440.79401,302.24499 C 447.07811,308.52911 454.16945,313.28475 462.10882,316.45486 C 467.86427,318.75297 473.97632,320.16658 480.49806,320.80141 L 480.49806,192.32746 z M 228.89975,193.99921 C 227.81458,193.99935 226.97143,194.18581 226.30853,194.66791 C 225.64532,195.15026 224.96538,196.17019 224.30244,197.67706 C 220.08273,206.7794 216.07018,215.15821 212.18225,222.7533 C 208.29408,230.34864 205.33436,235.64431 203.40557,238.71851 L 189.61363,264.04552 C 190.95416,266.26817 192.04058,268.10487 193.37507,270.31458 C 197.7864,262.28697 202.25899,254.21857 206.83265,246.07421 C 224.01225,215.48242 232.661,199.31843 232.66118,197.50989 C 232.66102,196.48525 232.26761,195.66545 231.57455,195.00226 C 230.88118,194.33931 229.98462,193.99935 228.89975,193.99921 z M 75.015201,195.75455 C 87.794482,216.43056 101.05911,238.32064 114.80284,261.28713 C 125.38691,278.97365 136.49768,297.71006 148.15424,317.5415 L 168.04806,317.5415 C 175.25515,303.76003 182.73803,289.76919 190.44951,275.66418 C 189.13329,273.48593 188.01378,271.67557 186.68807,269.4787 L 186.68807,269.39511 C 184.7375,266.16275 183.12117,263.52152 181.1713,260.28408 C 161.4228,227.49479 147.86216,204.77662 142.47029,195.75455 L 75.015201,195.75455 z M 674.42101,195.75455 L 620.4235,195.83814 C 620.47959,199.48528 620.50655,203.47038 620.59068,207.87473 C 620.67483,212.27933 620.75785,214.78056 620.75785,215.39761 L 620.75785,297.81486 C 620.75785,298.37595 620.67485,300.84963 620.59068,305.25414 C 620.50653,309.65863 620.47957,313.72729 620.4235,317.37433 L 674.42101,317.45791 L 674.42101,195.75455 z M 679.77061,195.75455 L 679.77061,201.27132 L 680.5229,201.27132 C 692.02499,201.27143 703.70715,201.49127 715.54605,201.94002 C 717.95861,202.05236 719.49863,202.1073 720.05977,202.1072 C 721.96736,202.10733 723.20331,201.91555 723.9048,201.4385 C 724.60602,200.96171 724.9913,200.08179 724.99144,198.84729 C 724.99133,197.66914 724.68908,196.87224 724.07197,196.42325 C 723.45466,195.97452 722.13571,195.75466 720.05977,195.75455 L 679.77061,195.75455 z M 285.82283,195.83814 C 285.87892,199.59749 285.98944,203.61006 286.07359,207.95832 C 286.15774,212.30682 286.15715,214.78056 286.15718,215.39761 L 286.15718,297.81486 C 286.15718,298.37595 286.15777,300.84963 286.07359,305.25414 C 285.98942,309.65863 285.87889,313.72729 285.82283,317.37433 L 340.48904,317.37433 C 340.43287,313.27843 340.29488,309.01745 340.15469,304.66903 C 340.01437,300.32069 339.98746,298.03927 339.98751,297.81486 L 339.98751,215.39761 C 339.98746,215.11718 340.01434,212.86385 340.15469,208.54343 C 340.2949,204.22323 340.4329,199.99023 340.48904,195.83814 L 285.82283,195.83814 z M 723.40327,228.60443 C 722.95428,228.60451 721.60782,228.65948 719.30749,228.7716 C 706.96361,229.10833 694.62193,229.27321 682.27824,229.27313 L 679.77061,229.27313 L 679.77061,234.87349 C 693.5091,234.90131 707.13472,235.04283 720.5613,235.29143 C 723.3666,235.34762 724.98788,235.37509 725.49296,235.37501 C 726.89555,235.37509 727.88477,235.09975 728.50211,234.62273 C 729.11916,234.14589 729.42144,233.40449 729.42157,232.28228 C 729.42144,230.87967 729.09225,229.8618 728.33494,229.35672 C 727.57738,228.85185 725.92802,228.60448 723.40327,228.60443 z M 545.36195,279.92714 C 544.01524,279.92716 542.4764,281.54847 540.68105,284.8588 C 538.88546,288.16921 537.12562,290.83585 535.49862,292.79961 C 529.38272,300.31812 522.23638,305.95256 514.01664,309.76787 C 505.79669,313.58323 496.64323,315.45181 486.59995,315.45181 C 486.27451,315.45181 486.14384,315.45024 485.84766,315.45181 L 485.84766,321.13576 C 486.59514,321.15636 487.34683,321.21935 488.10452,321.21935 C 497.64283,321.21935 506.63147,319.40511 515.01969,315.78616 C 523.40776,312.16719 530.91132,306.83452 537.58831,299.82096 C 540.67415,296.5106 543.2308,293.2119 545.19477,289.95763 C 547.15842,286.70339 548.1202,284.34018 548.12033,282.76911 C 548.1202,281.87142 547.92842,281.18445 547.45163,280.67942 C 546.97458,280.1745 546.25953,279.92714 545.36195,279.92714 z M 729.75592,311.18885 C 729.53137,311.18885 728.87187,311.24382 727.74982,311.35603 C 721.4656,311.861 715.11669,312.10829 708.60829,312.10832 C 708.04712,312.10832 706.42464,312.08087 703.8438,312.02473 C 695.3728,311.93266 687.51573,311.87382 679.77061,311.85755 L 679.77061,317.45791 L 728.08417,317.45791 C 730.21618,317.45791 731.5907,317.21004 732.17996,316.78921 C 732.76898,316.36839 733.09926,315.51601 733.09942,314.28159 C 733.09929,313.32776 732.76898,312.58585 732.17996,312.02473 C 731.5907,311.46366 730.76577,311.18885 729.75592,311.18885 z"
       id="text2433"
       style="font-size:69.23097992px;font-style:normal;font-variant:normal;font-weight:normal;font-stretch:normal;text-align:start;line-height:100%;writing-mode:lr-tb;text-anchor:start;fill:#f990e8;fill-opacity:1;stroke:none;stroke-width:1px;stroke-linecap:butt;stroke-linejoin:miter;stroke-opacity:1;font-family:Broadway BT;-inkscape-font-specification:Broadway BT" />
  </g>
</svg>
